<mxfile host="Electron" modified="2023-09-24T17:13:24.070Z" agent="Mozilla/5.0 (X11; Linux x86_64) AppleWebKit/537.36 (KHTML, like Gecko) draw.io/21.7.5 Chrome/114.0.5735.289 Electron/25.8.1 Safari/537.36" etag="UeKG3bZ5ETIxAY_Wphfl" version="21.7.5" type="device">
  <diagram id="C5RBs43oDa-KdzZeNtuy" name="Page-1">
    <mxGraphModel dx="683" dy="377" grid="1" gridSize="10" guides="1" tooltips="1" connect="1" arrows="1" fold="1" page="1" pageScale="1" pageWidth="827" pageHeight="1169" math="0" shadow="0">
      <root>
        <mxCell id="WIyWlLk6GJQsqaUBKTNV-0" />
        <mxCell id="WIyWlLk6GJQsqaUBKTNV-1" parent="WIyWlLk6GJQsqaUBKTNV-0" />
        <mxCell id="McsBOwYT0wXExJDiZ_z8-0" value="&lt;font style=&quot;font-size: 14px;&quot;&gt;Начало&lt;/font&gt;" style="strokeWidth=2;html=1;shape=mxgraph.flowchart.terminator;whiteSpace=wrap;" parent="WIyWlLk6GJQsqaUBKTNV-1" vertex="1">
          <mxGeometry x="320" y="20" width="176" height="80" as="geometry" />
        </mxCell>
        <mxCell id="McsBOwYT0wXExJDiZ_z8-1" value="&lt;font style=&quot;font-size: 14px;&quot;&gt;Расстояние Дамерау-Левенштейна&lt;br&gt;(нерекурсивная реализация)&amp;nbsp;&lt;br&gt;Входные данные: строки&amp;nbsp; S&lt;sub&gt;1&amp;nbsp;&lt;/sub&gt;и S&lt;sub&gt;2&amp;nbsp; &amp;nbsp; &amp;nbsp; &amp;nbsp; &amp;nbsp; &amp;nbsp; &amp;nbsp;&lt;/sub&gt;&amp;nbsp;&amp;nbsp;&lt;br&gt;Выходные данные: число&lt;sub&gt;&amp;nbsp; &amp;nbsp;&lt;/sub&gt;&amp;nbsp; &lt;sub&gt;&amp;nbsp;&amp;nbsp;&amp;nbsp;&amp;nbsp;&lt;/sub&gt;&lt;/font&gt;" style="strokeWidth=2;html=1;shape=mxgraph.flowchart.annotation_1;align=left;pointerEvents=1;" parent="WIyWlLk6GJQsqaUBKTNV-1" vertex="1">
          <mxGeometry x="520" y="10" width="50" height="100" as="geometry" />
        </mxCell>
        <mxCell id="McsBOwYT0wXExJDiZ_z8-2" value="" style="endArrow=none;dashed=1;html=1;rounded=0;entryX=0;entryY=0.5;entryDx=0;entryDy=0;entryPerimeter=0;exitX=1;exitY=0.5;exitDx=0;exitDy=0;exitPerimeter=0;" parent="WIyWlLk6GJQsqaUBKTNV-1" source="McsBOwYT0wXExJDiZ_z8-0" target="McsBOwYT0wXExJDiZ_z8-1" edge="1">
          <mxGeometry width="50" height="50" relative="1" as="geometry">
            <mxPoint x="384" y="200" as="sourcePoint" />
            <mxPoint x="434" y="150" as="targetPoint" />
          </mxGeometry>
        </mxCell>
        <mxCell id="McsBOwYT0wXExJDiZ_z8-3" value="&lt;font style=&quot;font-size: 14px;&quot;&gt;l&lt;sub&gt;1&amp;nbsp;&lt;/sub&gt;&amp;nbsp;= len(S&lt;sub style=&quot;&quot;&gt;1&lt;/sub&gt;)&lt;br&gt;l&lt;sub&gt;2&amp;nbsp;&lt;/sub&gt;&amp;nbsp;= len(S&lt;sub&gt;2&lt;/sub&gt;)&lt;br&gt;&lt;/font&gt;" style="shape=process;whiteSpace=wrap;html=1;backgroundOutline=1;" parent="WIyWlLk6GJQsqaUBKTNV-1" vertex="1">
          <mxGeometry x="331" y="120" width="154" height="70" as="geometry" />
        </mxCell>
        <mxCell id="McsBOwYT0wXExJDiZ_z8-4" value="" style="endArrow=none;html=1;rounded=0;entryX=0.5;entryY=1;entryDx=0;entryDy=0;entryPerimeter=0;exitX=0.5;exitY=0;exitDx=0;exitDy=0;" parent="WIyWlLk6GJQsqaUBKTNV-1" source="McsBOwYT0wXExJDiZ_z8-3" target="McsBOwYT0wXExJDiZ_z8-0" edge="1">
          <mxGeometry width="50" height="50" relative="1" as="geometry">
            <mxPoint x="424" y="310" as="sourcePoint" />
            <mxPoint x="474" y="260" as="targetPoint" />
          </mxGeometry>
        </mxCell>
        <mxCell id="McsBOwYT0wXExJDiZ_z8-5" value="&lt;font style=&quot;font-size: 14px;&quot;&gt;mtr&amp;nbsp; = &lt;br&gt;int(0)[l&lt;/font&gt;&lt;font style=&quot;&quot;&gt;&lt;span style=&quot;font-size: 11.6667px;&quot;&gt;&lt;sub&gt;1&lt;/sub&gt;&amp;nbsp;&lt;/span&gt;&lt;span style=&quot;font-size: 14px;&quot;&gt;+ 1][l&lt;/span&gt;&lt;sub style=&quot;font-size: 14px;&quot;&gt;2&lt;/sub&gt;&lt;span style=&quot;font-size: 14px;&quot;&gt;&amp;nbsp;+ 1]&lt;/span&gt;&lt;/font&gt;" style="rounded=0;whiteSpace=wrap;html=1;" parent="WIyWlLk6GJQsqaUBKTNV-1" vertex="1">
          <mxGeometry x="328" y="210" width="160" height="70" as="geometry" />
        </mxCell>
        <mxCell id="McsBOwYT0wXExJDiZ_z8-6" value="" style="endArrow=none;html=1;rounded=0;entryX=0.5;entryY=1;entryDx=0;entryDy=0;exitX=0.5;exitY=0;exitDx=0;exitDy=0;" parent="WIyWlLk6GJQsqaUBKTNV-1" source="McsBOwYT0wXExJDiZ_z8-5" target="McsBOwYT0wXExJDiZ_z8-3" edge="1">
          <mxGeometry width="50" height="50" relative="1" as="geometry">
            <mxPoint x="424" y="420" as="sourcePoint" />
            <mxPoint x="474" y="370" as="targetPoint" />
          </mxGeometry>
        </mxCell>
        <mxCell id="McsBOwYT0wXExJDiZ_z8-7" value="&lt;font style=&quot;font-size: 14px;&quot;&gt;Цикл i от 0 до l&lt;/font&gt;&lt;font size=&quot;1&quot; style=&quot;&quot;&gt;&lt;sub&gt;1&lt;/sub&gt;&lt;/font&gt;&lt;font style=&quot;&quot;&gt;&lt;span style=&quot;font-size: 14px;&quot;&gt;&amp;nbsp;+ 1&lt;/span&gt;&lt;/font&gt;" style="strokeWidth=2;html=1;shape=mxgraph.flowchart.loop_limit;whiteSpace=wrap;" parent="WIyWlLk6GJQsqaUBKTNV-1" vertex="1">
          <mxGeometry x="331" y="300" width="154" height="70" as="geometry" />
        </mxCell>
        <mxCell id="McsBOwYT0wXExJDiZ_z8-8" value="" style="endArrow=none;html=1;rounded=0;entryX=0.5;entryY=1;entryDx=0;entryDy=0;exitX=0.5;exitY=0;exitDx=0;exitDy=0;exitPerimeter=0;" parent="WIyWlLk6GJQsqaUBKTNV-1" source="McsBOwYT0wXExJDiZ_z8-7" target="McsBOwYT0wXExJDiZ_z8-5" edge="1">
          <mxGeometry width="50" height="50" relative="1" as="geometry">
            <mxPoint x="204" y="410" as="sourcePoint" />
            <mxPoint x="254" y="360" as="targetPoint" />
          </mxGeometry>
        </mxCell>
        <mxCell id="McsBOwYT0wXExJDiZ_z8-9" value="&lt;span style=&quot;font-size: 14px;&quot;&gt;mtr[i][0] = i&amp;nbsp;&lt;/span&gt;" style="rounded=0;whiteSpace=wrap;html=1;" parent="WIyWlLk6GJQsqaUBKTNV-1" vertex="1">
          <mxGeometry x="328" y="390" width="160" height="70" as="geometry" />
        </mxCell>
        <mxCell id="McsBOwYT0wXExJDiZ_z8-10" value="" style="endArrow=none;html=1;rounded=0;entryX=0.5;entryY=1;entryDx=0;entryDy=0;entryPerimeter=0;exitX=0.5;exitY=0;exitDx=0;exitDy=0;" parent="WIyWlLk6GJQsqaUBKTNV-1" source="McsBOwYT0wXExJDiZ_z8-9" target="McsBOwYT0wXExJDiZ_z8-7" edge="1">
          <mxGeometry width="50" height="50" relative="1" as="geometry">
            <mxPoint x="204" y="410" as="sourcePoint" />
            <mxPoint x="254" y="360" as="targetPoint" />
          </mxGeometry>
        </mxCell>
        <mxCell id="McsBOwYT0wXExJDiZ_z8-11" value="&lt;font style=&quot;font-size: 14px;&quot;&gt;&amp;nbsp;Конец цикла по i&lt;/font&gt;" style="strokeWidth=2;html=1;shape=mxgraph.flowchart.loop_limit;whiteSpace=wrap;direction=west;" parent="WIyWlLk6GJQsqaUBKTNV-1" vertex="1">
          <mxGeometry x="331" y="480" width="154" height="70" as="geometry" />
        </mxCell>
        <mxCell id="McsBOwYT0wXExJDiZ_z8-12" value="" style="endArrow=none;html=1;rounded=0;exitX=0.5;exitY=1;exitDx=0;exitDy=0;entryX=0.5;entryY=1;entryDx=0;entryDy=0;entryPerimeter=0;" parent="WIyWlLk6GJQsqaUBKTNV-1" source="McsBOwYT0wXExJDiZ_z8-9" target="McsBOwYT0wXExJDiZ_z8-11" edge="1">
          <mxGeometry width="50" height="50" relative="1" as="geometry">
            <mxPoint x="204" y="650" as="sourcePoint" />
            <mxPoint x="254" y="600" as="targetPoint" />
          </mxGeometry>
        </mxCell>
        <mxCell id="McsBOwYT0wXExJDiZ_z8-15" value="&lt;font style=&quot;font-size: 14px;&quot;&gt;Цикл j от 0 до l&lt;/font&gt;&lt;font style=&quot;&quot;&gt;&lt;sub style=&quot;font-size: 8.33333px;&quot;&gt;2&lt;/sub&gt;&lt;/font&gt;&lt;font style=&quot;&quot;&gt;&lt;span style=&quot;font-size: 14px;&quot;&gt;&amp;nbsp;+ 1&lt;/span&gt;&lt;/font&gt;" style="strokeWidth=2;html=1;shape=mxgraph.flowchart.loop_limit;whiteSpace=wrap;" parent="WIyWlLk6GJQsqaUBKTNV-1" vertex="1">
          <mxGeometry x="331" y="570" width="154" height="70" as="geometry" />
        </mxCell>
        <mxCell id="McsBOwYT0wXExJDiZ_z8-16" value="&lt;span style=&quot;font-size: 14px;&quot;&gt;mtr[0][j] = j&amp;nbsp;&lt;/span&gt;" style="rounded=0;whiteSpace=wrap;html=1;" parent="WIyWlLk6GJQsqaUBKTNV-1" vertex="1">
          <mxGeometry x="328" y="660" width="160" height="70" as="geometry" />
        </mxCell>
        <mxCell id="McsBOwYT0wXExJDiZ_z8-17" value="" style="endArrow=none;html=1;rounded=0;entryX=0.5;entryY=1;entryDx=0;entryDy=0;entryPerimeter=0;exitX=0.5;exitY=0;exitDx=0;exitDy=0;" parent="WIyWlLk6GJQsqaUBKTNV-1" source="McsBOwYT0wXExJDiZ_z8-16" target="McsBOwYT0wXExJDiZ_z8-15" edge="1">
          <mxGeometry width="50" height="50" relative="1" as="geometry">
            <mxPoint x="204" y="680" as="sourcePoint" />
            <mxPoint x="254" y="630" as="targetPoint" />
          </mxGeometry>
        </mxCell>
        <mxCell id="McsBOwYT0wXExJDiZ_z8-18" value="&lt;font style=&quot;font-size: 14px;&quot;&gt;&amp;nbsp;Конец цикла по j&lt;/font&gt;" style="strokeWidth=2;html=1;shape=mxgraph.flowchart.loop_limit;whiteSpace=wrap;direction=west;" parent="WIyWlLk6GJQsqaUBKTNV-1" vertex="1">
          <mxGeometry x="331" y="750" width="154" height="70" as="geometry" />
        </mxCell>
        <mxCell id="McsBOwYT0wXExJDiZ_z8-19" value="" style="endArrow=none;html=1;rounded=0;exitX=0.5;exitY=1;exitDx=0;exitDy=0;entryX=0.5;entryY=1;entryDx=0;entryDy=0;entryPerimeter=0;" parent="WIyWlLk6GJQsqaUBKTNV-1" source="McsBOwYT0wXExJDiZ_z8-16" target="McsBOwYT0wXExJDiZ_z8-18" edge="1">
          <mxGeometry width="50" height="50" relative="1" as="geometry">
            <mxPoint x="204" y="920" as="sourcePoint" />
            <mxPoint x="254" y="870" as="targetPoint" />
          </mxGeometry>
        </mxCell>
        <mxCell id="McsBOwYT0wXExJDiZ_z8-20" value="&lt;font style=&quot;font-size: 14px;&quot;&gt;A&lt;/font&gt;" style="ellipse;whiteSpace=wrap;html=1;aspect=fixed;" parent="WIyWlLk6GJQsqaUBKTNV-1" vertex="1">
          <mxGeometry x="368" y="840" width="80" height="80" as="geometry" />
        </mxCell>
        <mxCell id="McsBOwYT0wXExJDiZ_z8-21" value="" style="endArrow=none;html=1;rounded=0;entryX=0.5;entryY=0;entryDx=0;entryDy=0;entryPerimeter=0;" parent="WIyWlLk6GJQsqaUBKTNV-1" source="McsBOwYT0wXExJDiZ_z8-20" target="McsBOwYT0wXExJDiZ_z8-18" edge="1">
          <mxGeometry width="50" height="50" relative="1" as="geometry">
            <mxPoint x="204" y="1190" as="sourcePoint" />
            <mxPoint x="254" y="1140" as="targetPoint" />
          </mxGeometry>
        </mxCell>
        <mxCell id="McsBOwYT0wXExJDiZ_z8-22" value="" style="endArrow=none;html=1;rounded=0;exitX=0.5;exitY=0;exitDx=0;exitDy=0;exitPerimeter=0;" parent="WIyWlLk6GJQsqaUBKTNV-1" source="McsBOwYT0wXExJDiZ_z8-11" target="McsBOwYT0wXExJDiZ_z8-15" edge="1">
          <mxGeometry width="50" height="50" relative="1" as="geometry">
            <mxPoint x="390" y="550" as="sourcePoint" />
            <mxPoint x="440" y="500" as="targetPoint" />
          </mxGeometry>
        </mxCell>
      </root>
    </mxGraphModel>
  </diagram>
</mxfile>
